<mxfile host="Electron" agent="Mozilla/5.0 (Windows NT 10.0; Win64; x64) AppleWebKit/537.36 (KHTML, like Gecko) draw.io/24.7.5 Chrome/126.0.6478.183 Electron/31.3.0 Safari/537.36" version="24.7.5">
  <diagram name="第 1 页" id="Wu566Kua2JstjRgyABkP">
    <mxGraphModel dx="1728" dy="1003" grid="1" gridSize="10" guides="1" tooltips="1" connect="1" arrows="1" fold="1" page="1" pageScale="1" pageWidth="827" pageHeight="1169" math="0" shadow="0">
      <root>
        <mxCell id="0" />
        <mxCell id="1" parent="0" />
        <mxCell id="mrzvU3RzC2NnMxtd2iUf-1" value="" style="rounded=0;whiteSpace=wrap;html=1;" vertex="1" parent="1">
          <mxGeometry x="70" y="300" width="410" height="470" as="geometry" />
        </mxCell>
        <mxCell id="mrzvU3RzC2NnMxtd2iUf-14" style="edgeStyle=orthogonalEdgeStyle;rounded=0;orthogonalLoop=1;jettySize=auto;html=1;entryX=0.5;entryY=1;entryDx=0;entryDy=0;" edge="1" parent="1" source="mrzvU3RzC2NnMxtd2iUf-2" target="mrzvU3RzC2NnMxtd2iUf-11">
          <mxGeometry relative="1" as="geometry" />
        </mxCell>
        <mxCell id="mrzvU3RzC2NnMxtd2iUf-2" value="User input" style="rounded=1;whiteSpace=wrap;html=1;" vertex="1" parent="1">
          <mxGeometry x="90" y="720" width="290" height="40" as="geometry" />
        </mxCell>
        <mxCell id="mrzvU3RzC2NnMxtd2iUf-4" style="edgeStyle=orthogonalEdgeStyle;rounded=0;orthogonalLoop=1;jettySize=auto;html=1;" edge="1" parent="1" source="mrzvU3RzC2NnMxtd2iUf-3" target="mrzvU3RzC2NnMxtd2iUf-5">
          <mxGeometry relative="1" as="geometry">
            <mxPoint x="540" y="740" as="targetPoint" />
          </mxGeometry>
        </mxCell>
        <mxCell id="mrzvU3RzC2NnMxtd2iUf-3" value="Enter" style="rounded=1;whiteSpace=wrap;html=1;" vertex="1" parent="1">
          <mxGeometry x="400" y="720" width="70" height="40" as="geometry" />
        </mxCell>
        <mxCell id="mrzvU3RzC2NnMxtd2iUf-8" style="edgeStyle=orthogonalEdgeStyle;rounded=0;orthogonalLoop=1;jettySize=auto;html=1;" edge="1" parent="1" source="mrzvU3RzC2NnMxtd2iUf-5" target="mrzvU3RzC2NnMxtd2iUf-9">
          <mxGeometry relative="1" as="geometry">
            <mxPoint x="610" y="810" as="targetPoint" />
          </mxGeometry>
        </mxCell>
        <mxCell id="mrzvU3RzC2NnMxtd2iUf-5" value="Backend" style="rounded=0;whiteSpace=wrap;html=1;" vertex="1" parent="1">
          <mxGeometry x="550" y="710" width="120" height="60" as="geometry" />
        </mxCell>
        <mxCell id="mrzvU3RzC2NnMxtd2iUf-7" style="edgeStyle=orthogonalEdgeStyle;rounded=0;orthogonalLoop=1;jettySize=auto;html=1;entryX=0.5;entryY=0;entryDx=0;entryDy=0;" edge="1" parent="1" source="mrzvU3RzC2NnMxtd2iUf-6" target="mrzvU3RzC2NnMxtd2iUf-5">
          <mxGeometry relative="1" as="geometry" />
        </mxCell>
        <mxCell id="mrzvU3RzC2NnMxtd2iUf-6" value="User input" style="text;html=1;align=center;verticalAlign=middle;resizable=0;points=[];autosize=1;strokeColor=none;fillColor=none;" vertex="1" parent="1">
          <mxGeometry x="570" y="640" width="80" height="30" as="geometry" />
        </mxCell>
        <mxCell id="mrzvU3RzC2NnMxtd2iUf-16" style="edgeStyle=orthogonalEdgeStyle;rounded=0;orthogonalLoop=1;jettySize=auto;html=1;entryX=0.5;entryY=0;entryDx=0;entryDy=0;exitX=1;exitY=0.5;exitDx=0;exitDy=0;" edge="1" parent="1" source="mrzvU3RzC2NnMxtd2iUf-9" target="mrzvU3RzC2NnMxtd2iUf-10">
          <mxGeometry relative="1" as="geometry">
            <Array as="points">
              <mxPoint x="690" y="825" />
              <mxPoint x="690" y="320" />
              <mxPoint x="150" y="320" />
            </Array>
          </mxGeometry>
        </mxCell>
        <mxCell id="mrzvU3RzC2NnMxtd2iUf-9" value="Response" style="text;html=1;align=center;verticalAlign=middle;whiteSpace=wrap;rounded=0;" vertex="1" parent="1">
          <mxGeometry x="580" y="810" width="60" height="30" as="geometry" />
        </mxCell>
        <mxCell id="mrzvU3RzC2NnMxtd2iUf-10" value="" style="rounded=0;whiteSpace=wrap;html=1;" vertex="1" parent="1">
          <mxGeometry x="80" y="400" width="140" height="40" as="geometry" />
        </mxCell>
        <mxCell id="mrzvU3RzC2NnMxtd2iUf-11" value="" style="rounded=0;whiteSpace=wrap;html=1;" vertex="1" parent="1">
          <mxGeometry x="330" y="330" width="140" height="40" as="geometry" />
        </mxCell>
        <mxCell id="mrzvU3RzC2NnMxtd2iUf-15" style="edgeStyle=orthogonalEdgeStyle;rounded=0;orthogonalLoop=1;jettySize=auto;html=1;entryX=0.525;entryY=-0.033;entryDx=0;entryDy=0;entryPerimeter=0;exitX=0.5;exitY=0;exitDx=0;exitDy=0;jumpStyle=arc;" edge="1" parent="1" source="mrzvU3RzC2NnMxtd2iUf-2" target="mrzvU3RzC2NnMxtd2iUf-6">
          <mxGeometry relative="1" as="geometry">
            <Array as="points">
              <mxPoint x="235" y="550" />
              <mxPoint x="612" y="550" />
            </Array>
          </mxGeometry>
        </mxCell>
      </root>
    </mxGraphModel>
  </diagram>
</mxfile>
